<svg width="12" height="12" viewBox="0 0 12 12" fill="none" xmlns="http://www.w3.org/2000/svg">
<path d="M11.6247 5.40613H2.48249L7.95437 0.656128C8.04187 0.579565 7.98874 0.437378 7.87312 0.437378H6.4903C6.42937 0.437378 6.37155 0.459253 6.32624 0.498315L0.421554 5.62175C0.367474 5.66863 0.324102 5.72659 0.294377 5.79169C0.264651 5.85679 0.249268 5.92753 0.249268 5.9991C0.249268 6.07067 0.264651 6.1414 0.294377 6.2065C0.324102 6.27161 0.367474 6.32956 0.421554 6.37644L6.36062 11.5311C6.38405 11.5514 6.41218 11.5624 6.44187 11.5624H7.87155C7.98718 11.5624 8.0403 11.4186 7.9528 11.3436L2.48249 6.59363H11.6247C11.6934 6.59363 11.7497 6.53738 11.7497 6.46863V5.53113C11.7497 5.46238 11.6934 5.40613 11.6247 5.40613Z" fill="#1890FF"/>
</svg>
