<svg width="75" height="27" viewBox="0 0 75 27" fill="none" xmlns="http://www.w3.org/2000/svg">
<path d="M12.1599 4H11.8399L9.20988 9.25H14.7899L12.1599 4ZM16.4599 9.25H21.6199L18.9999 4H13.8399L16.4599 9.25ZM21.3799 10.75H12.7499V21.1L21.3799 10.75ZM11.2499 21.1V10.75H2.61988L11.2499 21.1ZM7.53988 9.25L10.1599 4H4.99988L2.37988 9.25H7.53988Z" fill="#1890FF"/>
<path d="M33.708 9.668C33.06 9.668 32.488 9.552 31.992 9.32C31.496 9.088 31.108 8.756 30.828 8.324C30.548 7.892 30.408 7.372 30.408 6.764V6.428H31.968V6.764C31.968 7.268 32.124 7.648 32.436 7.904C32.748 8.152 33.172 8.276 33.708 8.276C34.252 8.276 34.656 8.168 34.92 7.952C35.192 7.736 35.328 7.46 35.328 7.124C35.328 6.892 35.26 6.704 35.124 6.56C34.996 6.416 34.804 6.3 34.548 6.212C34.3 6.116 33.996 6.028 33.636 5.948L33.36 5.888C32.784 5.76 32.288 5.6 31.872 5.408C31.464 5.208 31.148 4.948 30.924 4.628C30.708 4.308 30.6 3.892 30.6 3.38C30.6 2.868 30.72 2.432 30.96 2.072C31.208 1.704 31.552 1.424 31.992 1.232C32.44 1.032 32.964 0.931999 33.564 0.931999C34.164 0.931999 34.696 1.036 35.16 1.244C35.632 1.444 36 1.748 36.264 2.156C36.536 2.556 36.672 3.06 36.672 3.668V4.028H35.112V3.668C35.112 3.348 35.048 3.092 34.92 2.9C34.8 2.7 34.624 2.556 34.392 2.468C34.16 2.372 33.884 2.324 33.564 2.324C33.084 2.324 32.728 2.416 32.496 2.6C32.272 2.776 32.16 3.02 32.16 3.332C32.16 3.54 32.212 3.716 32.316 3.86C32.428 4.004 32.592 4.124 32.808 4.22C33.024 4.316 33.3 4.4 33.636 4.472L33.912 4.532C34.512 4.66 35.032 4.824 35.472 5.024C35.92 5.224 36.268 5.488 36.516 5.816C36.764 6.144 36.888 6.564 36.888 7.076C36.888 7.588 36.756 8.04 36.492 8.432C36.236 8.816 35.868 9.12 35.388 9.344C34.916 9.56 34.356 9.668 33.708 9.668ZM38.0693 9.5V1.1H43.4693V2.54H39.6533V4.544H43.1333V5.984H39.6533V8.06H43.5413V9.5H38.0693ZM44.1379 9.5L46.3459 1.1H49.1059L51.3139 9.5H49.6819L49.2259 7.652H46.2259L45.7699 9.5H44.1379ZM46.5979 6.188H48.8539L47.8339 2.096H47.6179L46.5979 6.188ZM52.3193 9.5V1.1H55.9673C56.4953 1.1 56.9553 1.192 57.3473 1.376C57.7393 1.56 58.0433 1.82 58.2593 2.156C58.4753 2.492 58.5833 2.888 58.5833 3.344V3.488C58.5833 3.992 58.4633 4.4 58.2233 4.712C57.9833 5.024 57.6873 5.252 57.3353 5.396V5.612C57.6553 5.628 57.9033 5.74 58.0793 5.948C58.2553 6.148 58.3433 6.416 58.3433 6.752V9.5H56.7593V6.98C56.7593 6.788 56.7073 6.632 56.6033 6.512C56.5073 6.392 56.3433 6.332 56.1113 6.332H53.9033V9.5H52.3193ZM53.9033 4.892H55.7993C56.1753 4.892 56.4673 4.792 56.6753 4.592C56.8913 4.384 56.9993 4.112 56.9993 3.776V3.656C56.9993 3.32 56.8953 3.052 56.6873 2.852C56.4793 2.644 56.1833 2.54 55.7993 2.54H53.9033V4.892ZM63.0934 9.668C62.0534 9.668 61.2294 9.38 60.6214 8.804C60.0134 8.22 59.7094 7.388 59.7094 6.308V4.292C59.7094 3.212 60.0134 2.384 60.6214 1.808C61.2294 1.224 62.0534 0.931999 63.0934 0.931999C64.1254 0.931999 64.9214 1.216 65.4814 1.784C66.0494 2.344 66.3334 3.116 66.3334 4.1V4.172H64.7734V4.052C64.7734 3.556 64.6334 3.148 64.3534 2.828C64.0814 2.508 63.6614 2.348 63.0934 2.348C62.5334 2.348 62.0934 2.52 61.7734 2.864C61.4534 3.208 61.2934 3.676 61.2934 4.268V6.332C61.2934 6.916 61.4534 7.384 61.7734 7.736C62.0934 8.08 62.5334 8.252 63.0934 8.252C63.6614 8.252 64.0814 8.092 64.3534 7.772C64.6334 7.444 64.7734 7.036 64.7734 6.548V6.332H66.3334V6.5C66.3334 7.484 66.0494 8.26 65.4814 8.828C64.9214 9.388 64.1254 9.668 63.0934 9.668ZM67.624 9.5V1.1H69.208V4.568H72.328V1.1H73.912V9.5H72.328V6.008H69.208V9.5H67.624Z" fill="#1890FF"/>
<path d="M31.6973 24.5L34.2733 14.7H37.4933L40.0693 24.5H38.1653L37.6333 22.344H34.1333L33.6013 24.5H31.6973ZM34.5673 20.636H37.1993L36.0093 15.862H35.7573L34.5673 20.636ZM41.2284 26.768V25.172H48.0884V26.768H41.2284ZM49.924 24.5V14.7H51.772V22.82H56.252V24.5H49.924ZM60.9918 24.696C59.7598 24.696 58.7798 24.36 58.0518 23.688C57.3238 23.0067 56.9598 22.036 56.9598 20.776V18.424C56.9598 17.164 57.3238 16.198 58.0518 15.526C58.7798 14.8447 59.7598 14.504 60.9918 14.504C62.2238 14.504 63.2038 14.8447 63.9318 15.526C64.6598 16.198 65.0238 17.164 65.0238 18.424V20.776C65.0238 22.036 64.6598 23.0067 63.9318 23.688C63.2038 24.36 62.2238 24.696 60.9918 24.696ZM60.9918 23.044C61.6824 23.044 62.2191 22.8433 62.6018 22.442C62.9844 22.0407 63.1758 21.504 63.1758 20.832V18.368C63.1758 17.696 62.9844 17.1593 62.6018 16.758C62.2191 16.3567 61.6824 16.156 60.9918 16.156C60.3104 16.156 59.7738 16.3567 59.3818 16.758C58.9991 17.1593 58.8078 17.696 58.8078 18.368V20.832C58.8078 21.504 58.9991 22.0407 59.3818 22.442C59.7738 22.8433 60.3104 23.044 60.9918 23.044ZM68.5162 24.5V16.38H65.6602V14.7H73.2202V16.38H70.3642V24.5H68.5162Z" fill="#1890FF"/>
</svg>
